<svg width="24" height="24" viewBox="0 0 24 24" fill="none" xmlns="http://www.w3.org/2000/svg">
<path fill-rule="evenodd" clip-rule="evenodd" d="M17.4687 16.5302L17.999 17.0605L19.0597 15.9999L18.5294 15.4696L15.8097 12.7499L22.999 12.7499L22.999 11.2499L15.8097 11.2499L18.5294 8.53022L19.0597 7.99989L17.999 6.93923L17.4687 7.46956L13.4687 11.4696L12.9384 11.9999L13.4687 12.5302L17.4687 16.5302ZM8.18836 12.7499L0.999023 12.7499L0.999023 11.2499L8.18836 11.2499L5.46869 8.53022L4.93836 7.99989L5.99902 6.93923L6.52935 7.46956L10.5294 11.4696L11.0597 11.9999L10.5294 12.5302L6.52935 16.5302L5.99902 17.0605L4.93836 15.9999L5.46869 15.4696L8.18836 12.7499Z" fill="black"/>
</svg>
